<svg width="8" height="12" viewBox="0 0 8 12" fill="none" xmlns="http://www.w3.org/2000/svg">
<path d="M7.9973 6.00941C7.99782 6.20933 7.90487 6.40308 7.73458 6.55702L2.02324 11.6909C1.82936 11.8656 1.55074 11.9755 1.2487 11.9964C0.946653 12.0172 0.645916 11.9474 0.412646 11.8021C0.179376 11.6569 0.0326817 11.4482 0.00483349 11.2219C-0.0230147 10.9957 0.0702644 10.7704 0.264151 10.5957L5.38151 6.00941L0.446914 1.42315C0.352031 1.33563 0.281174 1.23492 0.238417 1.12682C0.19566 1.01872 0.181846 0.905356 0.197768 0.793242C0.21369 0.681128 0.259034 0.572476 0.331196 0.473533C0.403357 0.374588 0.500913 0.287303 0.618254 0.216692C0.735703 0.138332 0.873491 0.0789861 1.02298 0.0423708C1.17248 0.00575537 1.33045 -0.00733858 1.48702 0.00390714C1.64358 0.0151529 1.79535 0.050496 1.93283 0.107724C2.07031 0.164953 2.19053 0.242833 2.28596 0.336484L7.80311 5.47035C7.94648 5.62872 8.01486 5.81852 7.9973 6.00941Z" fill="#A1A7B0"/>
</svg>
