<svg width="32" height="32" viewBox="0 0 32 32" fill="none" xmlns="http://www.w3.org/2000/svg">
<path d="M20 22.6667H12V24C12 26.2091 13.7909 28 16 28C18.2091 28 20 26.2091 20 24V22.6667Z" stroke="black" stroke-width="2" stroke-linecap="round" stroke-linejoin="round"/>
<path d="M6.66668 22.6666H25.3333C26.0697 22.6666 26.6667 22.0697 26.6667 21.3333V20.5522C26.6667 20.1986 26.5262 19.8595 26.2762 19.6094L25.595 18.9283C25.4275 18.7607 25.3333 18.5335 25.3333 18.2965V13.3333C25.3333 8.17861 21.1547 3.99993 16 3.99994C10.8453 3.99995 6.66668 8.17862 6.66668 13.3333V18.2965C6.66668 18.5335 6.57254 18.7608 6.40497 18.9283L5.72387 19.6094C5.47382 19.8595 5.33334 20.1986 5.33334 20.5522V21.3333C5.33334 22.0697 5.9303 22.6666 6.66668 22.6666Z" stroke="black" stroke-width="2" stroke-linecap="round" stroke-linejoin="round"/>
</svg>
